<svg width="197" height="195" viewBox="0 0 197 195" fill="none" xmlns="http://www.w3.org/2000/svg">
<g opacity="0.5">
<path d="M98.89 194.49C152.97 194.49 196.81 151.071 196.81 97.51C196.81 43.9494 152.97 0.529999 98.89 0.529999C44.8103 0.529999 0.969971 43.9494 0.969971 97.51C0.969971 151.071 44.8103 194.49 98.89 194.49Z" fill="white"/>
<path d="M99.41 188.84C149.85 188.84 190.74 147.95 190.74 97.51C190.74 47.0698 149.85 6.17999 99.41 6.17999C48.9698 6.17999 8.08002 47.0698 8.08002 97.51C8.08002 147.95 48.9698 188.84 99.41 188.84Z" fill="#0D162B" stroke="#FF0000" stroke-width="3" stroke-miterlimit="10"/>
<path d="M141.78 55.14H57.04V139.88H141.78V55.14Z" fill="white"/>
<path d="M138.02 58.91H60.81V136.12H138.02V58.91Z" fill="#0D162B"/>
<path d="M128.6 68.32H70.22V126.7H128.6V68.32Z" fill="white"/>
<path d="M59.35 92.8H34.87V102.22H59.35V92.8Z" fill="white"/>
<path d="M59.35 66.44H34.87V75.86H59.35V66.44Z" fill="white"/>
<path d="M81.95 34.43H72.53V58.91H81.95V34.43Z" fill="white"/>
<path d="M164.8 66.44H140.32V75.86H164.8V66.44Z" fill="white"/>
<path d="M164.8 92.8H140.32V102.22H164.8V92.8Z" fill="white"/>
<path d="M164.8 119.17H140.32V128.59H164.8V119.17Z" fill="white"/>
<path d="M59.35 119.17H34.87V128.59H59.35V119.17Z" fill="white"/>
<path d="M104.12 34.43H94.7V58.91H104.12V34.43Z" fill="white"/>
<path d="M126.53 34.43H117.11V58.91H126.53V34.43Z" fill="white"/>
<path d="M126.53 137.38H117.11V161.86H126.53V137.38Z" fill="white"/>
<path d="M81.95 137.38H72.53V161.86H81.95V137.38Z" fill="white"/>
<path d="M104.12 137.38H94.7V161.86H104.12V137.38Z" fill="white"/>
</g>
</svg>
